<svg width="600" height="400" viewBox="0 0 600 400" xmlns="http://www.w3.org/2000/svg">
  <defs>
    <linearGradient id="bg" x1="0%" y1="0%" x2="100%" y2="100%">
      <stop offset="0%" style="stop-color:#3b82f6;stop-opacity:0.1" />
      <stop offset="100%" style="stop-color:#8b5cf6;stop-opacity:0.1" />
    </linearGradient>
  </defs>
  
  <!-- Background -->
  <rect width="600" height="400" fill="url(#bg)" />
  
  <!-- Dashboard mockup -->
  <rect x="50" y="50" width="500" height="300" rx="12" fill="#ffffff" stroke="#e5e7eb" stroke-width="2"/>
  
  <!-- Header -->
  <rect x="70" y="70" width="460" height="40" rx="6" fill="#f8fafc"/>
  <circle cx="90" cy="90" r="8" fill="#3b82f6"/>
  <rect x="110" y="85" width="100" height="10" rx="5" fill="#6b7280"/>
  
  <!-- Navigation -->
  <rect x="70" y="130" width="80" height="20" rx="4" fill="#3b82f6"/>
  <rect x="160" y="130" width="60" height="20" rx="4" fill="#e5e7eb"/>
  <rect x="230" y="130" width="70" height="20" rx="4" fill="#e5e7eb"/>
  
  <!-- Content area -->
  <rect x="70" y="170" width="220" height="160" rx="8" fill="#f8fafc"/>
  <rect x="310" y="170" width="240" height="160" rx="8" fill="#f8fafc"/>
  
  <!-- Charts/graphs -->
  <rect x="85" y="185" width="190" height="8" rx="4" fill="#10b77f"/>
  <rect x="85" y="200" width="150" height="8" rx="4" fill="#3b82f6"/>
  <rect x="85" y="215" width="170" height="8" rx="4" fill="#8b5cf6"/>
  
  <!-- Store icons -->
  <circle cx="340" cy="200" r="15" fill="#3b82f6"/>
  <circle cx="380" cy="200" r="15" fill="#10b77f"/>
  <circle cx="420" cy="200" r="15" fill="#f59e0b"/>
  <circle cx="460" cy="200" r="15" fill="#ef4444"/>
  
  <!-- Stats -->
  <rect x="325" y="240" width="60" height="30" rx="6" fill="#ffffff" stroke="#e5e7eb"/>
  <rect x="395" y="240" width="60" height="30" rx="6" fill="#ffffff" stroke="#e5e7eb"/>
  <rect x="465" y="240" width="60" height="30" rx="6" fill="#ffffff" stroke="#e5e7eb"/>
  
  <!-- Text -->
  <text x="300" y="390" font-family="Arial, sans-serif" font-size="14" fill="#6b7280" text-anchor="middle">StoreGo Multi-Store Dashboard</text>
</svg>