<svg width="800" height="600" viewBox="0 0 800 600" xmlns="http://www.w3.org/2000/svg">
  <defs>
    <linearGradient id="heroBg" x1="0%" y1="0%" x2="100%" y2="100%">
      <stop offset="0%" style="stop-color:#3b82f6;stop-opacity:0.8" />
      <stop offset="100%" style="stop-color:#8b5cf6;stop-opacity:0.8" />
    </linearGradient>
  </defs>
  
  <!-- Background -->
  <rect width="800" height="600" fill="url(#heroBg)" />
  
  <!-- E-commerce elements -->
  <rect x="100" y="100" width="600" height="400" rx="20" fill="#ffffff" opacity="0.95"/>
  
  <!-- Shopping cart -->
  <circle cx="200" cy="200" r="30" fill="#10b77f"/>
  <path d="M185 190 L215 190 M190 200 L210 200 M195 210 L205 210" stroke="#ffffff" stroke-width="3"/>
  
  <!-- Products -->
  <rect x="280" y="170" width="60" height="60" rx="8" fill="#f59e0b"/>
  <rect x="360" y="170" width="60" height="60" rx="8" fill="#ef4444"/>
  <rect x="440" y="170" width="60" height="60" rx="8" fill="#8b5cf6"/>
  
  <!-- Store fronts -->
  <rect x="150" y="300" width="100" height="80" rx="8" fill="#3b82f6" opacity="0.2"/>
  <rect x="280" y="300" width="100" height="80" rx="8" fill="#10b77f" opacity="0.2"/>
  <rect x="410" y="300" width="100" height="80" rx="8" fill="#f59e0b" opacity="0.2"/>
  <rect x="540" y="300" width="100" height="80" rx="8" fill="#ef4444" opacity="0.2"/>
  
  <!-- Analytics -->
  <rect x="550" y="150" width="120" height="100" rx="8" fill="#f8fafc"/>
  <rect x="570" y="170" width="80" height="8" rx="4" fill="#3b82f6"/>
  <rect x="570" y="185" width="60" height="8" rx="4" fill="#10b77f"/>
  <rect x="570" y="200" width="70" height="8" rx="4" fill="#f59e0b"/>
  
  <!-- Text overlay -->
  <text x="400" y="550" font-family="Arial, sans-serif" font-size="24" fill="#ffffff" text-anchor="middle" font-weight="bold">StoreGo E-commerce Platform</text>
</svg>